<mxfile host="Electron" modified="2024-07-27T21:57:42.839Z" agent="Mozilla/5.0 (Windows NT 10.0; Win64; x64) AppleWebKit/537.36 (KHTML, like Gecko) draw.io/22.0.2 Chrome/114.0.5735.289 Electron/25.8.4 Safari/537.36" etag="hbXL5vj-iQgwKzYLmZhh" version="22.0.2" type="device">
  <diagram name="Page-1" id="F0XwoyQ3lqNc3LvD0mNE">
    <mxGraphModel dx="2049" dy="1194" grid="1" gridSize="10" guides="1" tooltips="1" connect="1" arrows="1" fold="1" page="1" pageScale="1" pageWidth="850" pageHeight="1100" math="0" shadow="0">
      <root>
        <mxCell id="0" />
        <mxCell id="1" parent="0" />
        <mxCell id="DhWCyM13J9A1nExANPJX-71" value="" style="rounded=0;whiteSpace=wrap;html=1;fillColor=none;dashed=1;" vertex="1" parent="1">
          <mxGeometry x="370" y="230" width="230" height="360" as="geometry" />
        </mxCell>
        <mxCell id="DhWCyM13J9A1nExANPJX-69" value="" style="rounded=0;whiteSpace=wrap;html=1;fillColor=none;dashed=1;" vertex="1" parent="1">
          <mxGeometry x="680" y="120" width="980" height="500" as="geometry" />
        </mxCell>
        <mxCell id="DhWCyM13J9A1nExANPJX-21" style="edgeStyle=orthogonalEdgeStyle;rounded=0;orthogonalLoop=1;jettySize=auto;html=1;" edge="1" parent="1" source="DhWCyM13J9A1nExANPJX-2" target="DhWCyM13J9A1nExANPJX-6">
          <mxGeometry relative="1" as="geometry" />
        </mxCell>
        <mxCell id="DhWCyM13J9A1nExANPJX-2" value="Data Administrator" style="shape=umlActor;verticalLabelPosition=bottom;verticalAlign=top;html=1;" vertex="1" parent="1">
          <mxGeometry x="70" y="289.4" width="30" height="60" as="geometry" />
        </mxCell>
        <mxCell id="DhWCyM13J9A1nExANPJX-4" value="BioTuring Server" style="image;points=[];aspect=fixed;html=1;align=center;shadow=0;dashed=0;image=img/lib/allied_telesis/storage/Datacenter_Server_Rack.svg;" vertex="1" parent="1">
          <mxGeometry x="510" y="245.1" width="73.99" height="150" as="geometry" />
        </mxCell>
        <mxCell id="DhWCyM13J9A1nExANPJX-6" value="BBrowser" style="image;points=[];aspect=fixed;html=1;align=center;shadow=0;dashed=0;image=img/lib/allied_telesis/computer_and_terminals/Personal_Computer.svg;" vertex="1" parent="1">
          <mxGeometry x="190" y="279.4" width="59.03" height="80" as="geometry" />
        </mxCell>
        <mxCell id="DhWCyM13J9A1nExANPJX-9" value="File System" style="verticalLabelPosition=bottom;aspect=fixed;html=1;shape=mxgraph.salesforce.data;fillColor=default;fontColor=#000000;strokeColor=#001DBC;" vertex="1" parent="1">
          <mxGeometry x="526.74" y="491.7" width="40.5" height="50" as="geometry" />
        </mxCell>
        <mxCell id="DhWCyM13J9A1nExANPJX-16" style="edgeStyle=orthogonalEdgeStyle;rounded=0;orthogonalLoop=1;jettySize=auto;html=1;exitX=0.5;exitY=0.5;exitDx=0;exitDy=0;exitPerimeter=0;" edge="1" parent="1" source="DhWCyM13J9A1nExANPJX-10" target="DhWCyM13J9A1nExANPJX-12">
          <mxGeometry relative="1" as="geometry" />
        </mxCell>
        <mxCell id="DhWCyM13J9A1nExANPJX-10" value="Data Science Team" style="shape=umlActor;verticalLabelPosition=bottom;verticalAlign=top;html=1;" vertex="1" parent="1">
          <mxGeometry x="70" y="490" width="30" height="60" as="geometry" />
        </mxCell>
        <mxCell id="DhWCyM13J9A1nExANPJX-12" value="Curated Data" style="image;aspect=fixed;html=1;points=[];align=center;fontSize=12;image=img/lib/azure2/general/Files.svg;" vertex="1" parent="1">
          <mxGeometry x="203.32000000000002" y="495" width="45.71" height="50" as="geometry" />
        </mxCell>
        <mxCell id="DhWCyM13J9A1nExANPJX-18" style="edgeStyle=orthogonalEdgeStyle;rounded=0;orthogonalLoop=1;jettySize=auto;html=1;entryX=-0.051;entryY=0.58;entryDx=0;entryDy=0;entryPerimeter=0;" edge="1" parent="1" source="DhWCyM13J9A1nExANPJX-12" target="DhWCyM13J9A1nExANPJX-9">
          <mxGeometry relative="1" as="geometry" />
        </mxCell>
        <mxCell id="DhWCyM13J9A1nExANPJX-19" style="edgeStyle=orthogonalEdgeStyle;rounded=0;orthogonalLoop=1;jettySize=auto;html=1;entryX=0.494;entryY=0.08;entryDx=0;entryDy=0;entryPerimeter=0;startArrow=classic;startFill=1;" edge="1" parent="1" source="DhWCyM13J9A1nExANPJX-4" target="DhWCyM13J9A1nExANPJX-9">
          <mxGeometry relative="1" as="geometry" />
        </mxCell>
        <mxCell id="DhWCyM13J9A1nExANPJX-60" value="Success" style="edgeStyle=orthogonalEdgeStyle;rounded=0;orthogonalLoop=1;jettySize=auto;html=1;exitX=0.5;exitY=1;exitDx=0;exitDy=0;exitPerimeter=0;" edge="1" parent="1" source="DhWCyM13J9A1nExANPJX-22" target="DhWCyM13J9A1nExANPJX-23">
          <mxGeometry relative="1" as="geometry" />
        </mxCell>
        <mxCell id="DhWCyM13J9A1nExANPJX-22" value="Amazon S3" style="outlineConnect=0;dashed=0;verticalLabelPosition=bottom;verticalAlign=top;align=center;html=1;shape=mxgraph.aws3.s3;fillColor=#E05243;gradientColor=none;" vertex="1" parent="1">
          <mxGeometry x="1445.25" y="316.16" width="42" height="58.9" as="geometry" />
        </mxCell>
        <mxCell id="DhWCyM13J9A1nExANPJX-23" value="MongoDB (Store data entries: title, &lt;br&gt;abstract, s3 link, etc)" style="dashed=0;outlineConnect=0;html=1;align=center;labelPosition=center;verticalLabelPosition=bottom;verticalAlign=top;shape=mxgraph.webicons.mongodb;gradientColor=#DFDEDE" vertex="1" parent="1">
          <mxGeometry x="1446.88" y="508" width="38.75" height="42.5" as="geometry" />
        </mxCell>
        <mxCell id="DhWCyM13J9A1nExANPJX-28" value="Data Delivery Task Queue" style="rounded=0;whiteSpace=wrap;html=1;verticalAlign=top;fillColor=none;labelPosition=center;verticalLabelPosition=bottom;align=center;" vertex="1" parent="1">
          <mxGeometry x="820" y="331.9" width="213.75" height="50" as="geometry" />
        </mxCell>
        <mxCell id="DhWCyM13J9A1nExANPJX-24" value="Delivery Status Log DB" style="verticalLabelPosition=bottom;html=1;verticalAlign=top;align=center;strokeColor=none;fillColor=#00BEF2;shape=mxgraph.azure.mysql_database;" vertex="1" parent="1">
          <mxGeometry x="1568" y="227.24" width="40" height="60" as="geometry" />
        </mxCell>
        <mxCell id="DhWCyM13J9A1nExANPJX-26" value="" style="sketch=0;aspect=fixed;pointerEvents=1;shadow=0;dashed=0;html=1;strokeColor=none;labelPosition=center;verticalLabelPosition=bottom;verticalAlign=top;align=center;shape=mxgraph.azure.startup_task;fillColor=#0078D7;" vertex="1" parent="1">
          <mxGeometry x="833.75" y="337.24" width="37.74" height="39.32" as="geometry" />
        </mxCell>
        <mxCell id="DhWCyM13J9A1nExANPJX-30" value="" style="sketch=0;aspect=fixed;pointerEvents=1;shadow=0;dashed=0;html=1;strokeColor=none;labelPosition=center;verticalLabelPosition=bottom;verticalAlign=top;align=center;shape=mxgraph.azure.startup_task;fillColor=#0078D7;" vertex="1" parent="1">
          <mxGeometry x="883.75" y="337.24" width="37.74" height="39.32" as="geometry" />
        </mxCell>
        <mxCell id="DhWCyM13J9A1nExANPJX-31" value="" style="sketch=0;aspect=fixed;pointerEvents=1;shadow=0;dashed=0;html=1;strokeColor=none;labelPosition=center;verticalLabelPosition=bottom;verticalAlign=top;align=center;shape=mxgraph.azure.startup_task;fillColor=#0078D7;" vertex="1" parent="1">
          <mxGeometry x="933.75" y="337.24" width="37.74" height="39.32" as="geometry" />
        </mxCell>
        <mxCell id="DhWCyM13J9A1nExANPJX-32" value="" style="sketch=0;aspect=fixed;pointerEvents=1;shadow=0;dashed=0;html=1;strokeColor=none;labelPosition=center;verticalLabelPosition=bottom;verticalAlign=top;align=center;shape=mxgraph.azure.startup_task;fillColor=#0078D7;" vertex="1" parent="1">
          <mxGeometry x="983.75" y="337.24" width="37.74" height="39.32" as="geometry" />
        </mxCell>
        <mxCell id="DhWCyM13J9A1nExANPJX-34" value="Publish Data &lt;br&gt;Request" style="sketch=0;aspect=fixed;pointerEvents=1;shadow=0;dashed=0;html=1;strokeColor=none;labelPosition=center;verticalLabelPosition=bottom;verticalAlign=top;align=center;shape=mxgraph.azure.startup_task;fillColor=#0078D7;" vertex="1" parent="1">
          <mxGeometry x="300" y="299.74" width="37.74" height="39.32" as="geometry" />
        </mxCell>
        <mxCell id="DhWCyM13J9A1nExANPJX-35" style="edgeStyle=orthogonalEdgeStyle;rounded=0;orthogonalLoop=1;jettySize=auto;html=1;entryX=0;entryY=0.5;entryDx=0;entryDy=0;entryPerimeter=0;" edge="1" parent="1" source="DhWCyM13J9A1nExANPJX-6" target="DhWCyM13J9A1nExANPJX-34">
          <mxGeometry relative="1" as="geometry" />
        </mxCell>
        <mxCell id="DhWCyM13J9A1nExANPJX-40" value="BBrowser API" style="sketch=0;html=1;dashed=0;whitespace=wrap;fillColor=#2875E2;strokeColor=#ffffff;points=[[0.005,0.63,0],[0.1,0.2,0],[0.9,0.2,0],[0.5,0,0],[0.995,0.63,0],[0.72,0.99,0],[0.5,1,0],[0.28,0.99,0]];verticalLabelPosition=bottom;align=center;verticalAlign=top;shape=mxgraph.kubernetes.icon;prIcon=api" vertex="1" parent="1">
          <mxGeometry x="395" y="288" width="51.13" height="49.06" as="geometry" />
        </mxCell>
        <mxCell id="DhWCyM13J9A1nExANPJX-41" style="edgeStyle=orthogonalEdgeStyle;rounded=0;orthogonalLoop=1;jettySize=auto;html=1;exitX=1;exitY=0.5;exitDx=0;exitDy=0;exitPerimeter=0;entryX=0.005;entryY=0.63;entryDx=0;entryDy=0;entryPerimeter=0;" edge="1" parent="1" source="DhWCyM13J9A1nExANPJX-34" target="DhWCyM13J9A1nExANPJX-40">
          <mxGeometry relative="1" as="geometry" />
        </mxCell>
        <mxCell id="DhWCyM13J9A1nExANPJX-43" style="edgeStyle=orthogonalEdgeStyle;rounded=0;orthogonalLoop=1;jettySize=auto;html=1;exitX=0.995;exitY=0.63;exitDx=0;exitDy=0;exitPerimeter=0;entryX=-0.042;entryY=0.492;entryDx=0;entryDy=0;entryPerimeter=0;startArrow=classic;startFill=1;" edge="1" parent="1" source="DhWCyM13J9A1nExANPJX-40" target="DhWCyM13J9A1nExANPJX-4">
          <mxGeometry relative="1" as="geometry" />
        </mxCell>
        <mxCell id="DhWCyM13J9A1nExANPJX-44" value="Task Distributor" style="verticalLabelPosition=bottom;html=1;verticalAlign=top;align=center;strokeColor=none;fillColor=#00BEF2;shape=mxgraph.azure.worker_role;" vertex="1" parent="1">
          <mxGeometry x="1088" y="336.9" width="50" height="40" as="geometry" />
        </mxCell>
        <mxCell id="DhWCyM13J9A1nExANPJX-45" value="Delivery Worker" style="verticalLabelPosition=bottom;html=1;verticalAlign=top;align=center;strokeColor=none;fillColor=#00BEF2;shape=mxgraph.azure.worker_role;" vertex="1" parent="1">
          <mxGeometry x="1248" y="376.56" width="50" height="40" as="geometry" />
        </mxCell>
        <mxCell id="DhWCyM13J9A1nExANPJX-56" style="rounded=0;orthogonalLoop=1;jettySize=auto;html=1;exitX=1;exitY=0.5;exitDx=0;exitDy=0;exitPerimeter=0;entryX=0;entryY=0.5;entryDx=0;entryDy=0;entryPerimeter=0;" edge="1" parent="1" source="DhWCyM13J9A1nExANPJX-46" target="DhWCyM13J9A1nExANPJX-22">
          <mxGeometry relative="1" as="geometry" />
        </mxCell>
        <mxCell id="DhWCyM13J9A1nExANPJX-46" value="Delivery Worker" style="verticalLabelPosition=bottom;html=1;verticalAlign=top;align=center;strokeColor=none;fillColor=#00BEF2;shape=mxgraph.azure.worker_role;" vertex="1" parent="1">
          <mxGeometry x="1248" y="275.5" width="50" height="40" as="geometry" />
        </mxCell>
        <mxCell id="DhWCyM13J9A1nExANPJX-47" value="Delivery Worker" style="verticalLabelPosition=bottom;html=1;verticalAlign=top;align=center;strokeColor=none;fillColor=#00BEF2;shape=mxgraph.azure.worker_role;" vertex="1" parent="1">
          <mxGeometry x="1248" y="477.5" width="50" height="40" as="geometry" />
        </mxCell>
        <mxCell id="DhWCyM13J9A1nExANPJX-49" value="Delivery Worker" style="verticalLabelPosition=bottom;html=1;verticalAlign=top;align=center;strokeColor=none;fillColor=#00BEF2;shape=mxgraph.azure.worker_role;" vertex="1" parent="1">
          <mxGeometry x="1248" y="170" width="50" height="40" as="geometry" />
        </mxCell>
        <mxCell id="DhWCyM13J9A1nExANPJX-50" style="edgeStyle=orthogonalEdgeStyle;rounded=0;orthogonalLoop=1;jettySize=auto;html=1;exitX=1;exitY=0.5;exitDx=0;exitDy=0;entryX=0;entryY=0.5;entryDx=0;entryDy=0;entryPerimeter=0;" edge="1" parent="1" source="DhWCyM13J9A1nExANPJX-28" target="DhWCyM13J9A1nExANPJX-44">
          <mxGeometry relative="1" as="geometry" />
        </mxCell>
        <mxCell id="DhWCyM13J9A1nExANPJX-51" style="rounded=0;orthogonalLoop=1;jettySize=auto;html=1;exitX=1;exitY=0.5;exitDx=0;exitDy=0;exitPerimeter=0;entryX=0;entryY=0.5;entryDx=0;entryDy=0;entryPerimeter=0;" edge="1" parent="1" source="DhWCyM13J9A1nExANPJX-44" target="DhWCyM13J9A1nExANPJX-49">
          <mxGeometry relative="1" as="geometry" />
        </mxCell>
        <mxCell id="DhWCyM13J9A1nExANPJX-52" style="rounded=0;orthogonalLoop=1;jettySize=auto;html=1;exitX=1;exitY=0.5;exitDx=0;exitDy=0;exitPerimeter=0;entryX=0;entryY=0.5;entryDx=0;entryDy=0;entryPerimeter=0;" edge="1" parent="1" source="DhWCyM13J9A1nExANPJX-44" target="DhWCyM13J9A1nExANPJX-46">
          <mxGeometry relative="1" as="geometry" />
        </mxCell>
        <mxCell id="DhWCyM13J9A1nExANPJX-53" style="rounded=0;orthogonalLoop=1;jettySize=auto;html=1;exitX=1;exitY=0.5;exitDx=0;exitDy=0;exitPerimeter=0;entryX=0;entryY=0.5;entryDx=0;entryDy=0;entryPerimeter=0;" edge="1" parent="1" source="DhWCyM13J9A1nExANPJX-44" target="DhWCyM13J9A1nExANPJX-45">
          <mxGeometry relative="1" as="geometry" />
        </mxCell>
        <mxCell id="DhWCyM13J9A1nExANPJX-54" style="rounded=0;orthogonalLoop=1;jettySize=auto;html=1;exitX=1;exitY=0.5;exitDx=0;exitDy=0;exitPerimeter=0;entryX=0;entryY=0.5;entryDx=0;entryDy=0;entryPerimeter=0;" edge="1" parent="1" source="DhWCyM13J9A1nExANPJX-44" target="DhWCyM13J9A1nExANPJX-47">
          <mxGeometry relative="1" as="geometry" />
        </mxCell>
        <mxCell id="DhWCyM13J9A1nExANPJX-55" style="rounded=0;orthogonalLoop=1;jettySize=auto;html=1;exitX=1;exitY=0.5;exitDx=0;exitDy=0;exitPerimeter=0;entryX=0;entryY=0.5;entryDx=0;entryDy=0;entryPerimeter=0;" edge="1" parent="1" source="DhWCyM13J9A1nExANPJX-49" target="DhWCyM13J9A1nExANPJX-22">
          <mxGeometry relative="1" as="geometry" />
        </mxCell>
        <mxCell id="DhWCyM13J9A1nExANPJX-57" style="rounded=0;orthogonalLoop=1;jettySize=auto;html=1;entryX=0;entryY=0.5;entryDx=0;entryDy=0;entryPerimeter=0;" edge="1" parent="1" source="DhWCyM13J9A1nExANPJX-45" target="DhWCyM13J9A1nExANPJX-22">
          <mxGeometry relative="1" as="geometry" />
        </mxCell>
        <mxCell id="DhWCyM13J9A1nExANPJX-58" style="rounded=0;orthogonalLoop=1;jettySize=auto;html=1;exitX=1;exitY=0.5;exitDx=0;exitDy=0;exitPerimeter=0;entryX=0;entryY=0.5;entryDx=0;entryDy=0;entryPerimeter=0;" edge="1" parent="1" source="DhWCyM13J9A1nExANPJX-47" target="DhWCyM13J9A1nExANPJX-22">
          <mxGeometry relative="1" as="geometry" />
        </mxCell>
        <mxCell id="DhWCyM13J9A1nExANPJX-61" value="Failure" style="edgeStyle=orthogonalEdgeStyle;rounded=0;orthogonalLoop=1;jettySize=auto;html=1;exitX=0.5;exitY=0;exitDx=0;exitDy=0;exitPerimeter=0;entryX=0;entryY=0.5;entryDx=0;entryDy=0;entryPerimeter=0;" edge="1" parent="1" source="DhWCyM13J9A1nExANPJX-22" target="DhWCyM13J9A1nExANPJX-24">
          <mxGeometry relative="1" as="geometry" />
        </mxCell>
        <mxCell id="DhWCyM13J9A1nExANPJX-62" value="Success" style="edgeStyle=orthogonalEdgeStyle;rounded=0;orthogonalLoop=1;jettySize=auto;html=1;exitX=0.5;exitY=1;exitDx=0;exitDy=0;exitPerimeter=0;entryX=0.5;entryY=1;entryDx=0;entryDy=0;entryPerimeter=0;" edge="1" parent="1" source="DhWCyM13J9A1nExANPJX-22" target="DhWCyM13J9A1nExANPJX-24">
          <mxGeometry relative="1" as="geometry">
            <Array as="points">
              <mxPoint x="1466" y="437.5" />
              <mxPoint x="1588" y="437.5" />
            </Array>
          </mxGeometry>
        </mxCell>
        <mxCell id="DhWCyM13J9A1nExANPJX-64" value="" style="image;sketch=0;aspect=fixed;html=1;points=[];align=center;fontSize=12;image=img/lib/mscae/Docker.svg;" vertex="1" parent="1">
          <mxGeometry x="690" y="570" width="50" height="41" as="geometry" />
        </mxCell>
        <mxCell id="DhWCyM13J9A1nExANPJX-68" style="edgeStyle=orthogonalEdgeStyle;rounded=0;orthogonalLoop=1;jettySize=auto;html=1;exitX=0.995;exitY=0.63;exitDx=0;exitDy=0;exitPerimeter=0;entryX=0;entryY=0.5;entryDx=0;entryDy=0;" edge="1" parent="1" source="DhWCyM13J9A1nExANPJX-65" target="DhWCyM13J9A1nExANPJX-28">
          <mxGeometry relative="1" as="geometry" />
        </mxCell>
        <mxCell id="DhWCyM13J9A1nExANPJX-65" value="Data Delivery API" style="sketch=0;html=1;dashed=0;whitespace=wrap;fillColor=#2875E2;strokeColor=#ffffff;points=[[0.005,0.63,0],[0.1,0.2,0],[0.9,0.2,0],[0.5,0,0],[0.995,0.63,0],[0.72,0.99,0],[0.5,1,0],[0.28,0.99,0]];verticalLabelPosition=bottom;align=center;verticalAlign=top;shape=mxgraph.kubernetes.icon;prIcon=api" vertex="1" parent="1">
          <mxGeometry x="710" y="326" width="51.13" height="49.06" as="geometry" />
        </mxCell>
        <mxCell id="DhWCyM13J9A1nExANPJX-67" style="edgeStyle=orthogonalEdgeStyle;rounded=0;orthogonalLoop=1;jettySize=auto;html=1;entryX=0.005;entryY=0.63;entryDx=0;entryDy=0;entryPerimeter=0;startArrow=classic;startFill=1;" edge="1" parent="1" source="DhWCyM13J9A1nExANPJX-4" target="DhWCyM13J9A1nExANPJX-65">
          <mxGeometry relative="1" as="geometry" />
        </mxCell>
        <mxCell id="DhWCyM13J9A1nExANPJX-70" style="edgeStyle=orthogonalEdgeStyle;rounded=0;orthogonalLoop=1;jettySize=auto;html=1;entryX=0.5;entryY=0;entryDx=0;entryDy=0;entryPerimeter=0;exitX=0.5;exitY=0;exitDx=0;exitDy=0;exitPerimeter=0;startArrow=classic;startFill=1;" edge="1" parent="1" source="DhWCyM13J9A1nExANPJX-65" target="DhWCyM13J9A1nExANPJX-24">
          <mxGeometry relative="1" as="geometry">
            <Array as="points">
              <mxPoint x="736" y="150" />
              <mxPoint x="1588" y="150" />
            </Array>
          </mxGeometry>
        </mxCell>
      </root>
    </mxGraphModel>
  </diagram>
</mxfile>
